<svg width="500" height="500" viewBox="0 0 500 500" fill="none" xmlns="http://www.w3.org/2000/svg">
<path d="M88.5 6.30005H411.4C460.4 6.30005 499.9 45.9 499.9 94.8V405.2C499.9 454.2 460.3 493.7 411.4 493.7H88.5C39.5 493.7 0 454.1 0 405.2V94.8C0 45.8 39.6 6.30005 88.5 6.30005Z" fill="#470137"/>
<path d="M262.9 134.4L200.4 237.5L267.1 346.9C267.5 347.7 267.7 348.6 267.5 349.4C267.3 350.2 266.5 349.6 265.2 349.8H217.5C214.2 349.8 211.9 349.6 210.4 347.5C206 338.7 201.4 330.2 197.1 321.5C192.7 313 187.9 304.2 182.9 295.2C177.9 286.2 172.9 277.3 167.9 268.1H167.5C163.1 277.1 158.3 286 153.5 295C148.7 304 143.9 312.9 139.3 321.7C134.5 330.5 129.7 339.4 124.9 348C124.1 350.1 122.4 350.3 120.1 350.3H74.4C73.6 350.3 72.9 350.7 72.9 349.7C72.7 348.9 72.9 348 73.3 347.4L138.1 241L75 134.2C74.4 133.4 74.2 132.5 74.6 132.1C75 131.5 75.9 131.3 76.7 131.3H124C125 131.3 126.1 131.5 126.9 131.7C127.7 132.1 128.4 132.7 129 133.6C133 142.6 137.5 151.5 142.3 160.5C147.3 169.5 152.1 178.2 157.3 187C162.3 195.7 166.9 204.5 171.3 213.5H171.7C176.1 204.3 180.7 195.4 185.2 186.6C189.8 177.9 194.6 169.1 199.4 160.3C204.2 151.6 208.8 142.6 213.4 134.1C213.6 133.3 214 132.4 214.7 132C215.5 131.6 216.4 131.4 217.4 131.6H261.4C262.4 131.4 263.5 132 263.7 133.1C263.8 133.1 263.3 134 262.9 134.4Z" fill="#FF61F6"/>
<path d="M359.2 354.2C343.8 354.4 328.4 351.3 314.4 344.8C301.3 338.8 290.4 328.8 282.9 316.5C275.2 303.8 271.4 288 271.4 269C271.2 253.6 275.2 238.4 282.9 225C290.8 211.5 302.3 200.2 316 192.7C330.6 184.6 348.1 180.6 368.7 180.6C369.7 180.6 371.2 180.6 373.1 180.8C375 181 377.1 181 379.6 181.2V115.4C379.6 113.9 380.2 113.1 381.7 113.1H424C425 112.9 425.9 113.7 426.1 114.6C426.1 114.8 426.1 115 426.1 115V313.3C426.1 317.1 426.3 321.2 426.5 325.8C426.9 330.2 427.1 334.3 427.3 337.9C427.3 339.4 426.7 340.6 425.2 341.2C414.4 345.8 402.9 349.1 391.2 351.2C380.6 353.1 370 354.2 359.2 354.2ZM379.6 312.5V220.8C377.7 220.4 375.8 220 374 219.8C371.7 219.6 369.4 219.4 367.1 219.4C359 219.4 350.8 221.1 343.6 224.8C336.5 228.3 330.5 233.5 325.9 240.2C321.3 246.9 319 255.8 319 266.7C318.8 274 320 281.3 322.5 288.2C324.6 293.8 327.7 298.8 331.9 303C335.9 306.8 340.7 309.7 346.1 311.3C351.7 313.2 357.6 314 363.4 314C366.5 314 369.4 313.8 372.2 313.6C374.8 313.8 377.1 313.3 379.6 312.5Z" fill="#FF61F6"/>
</svg>
