<svg width="400" height="400" viewBox="0 0 400 400" fill="none" xmlns="http://www.w3.org/2000/svg">
<g clip-path="url(#clip0)">
<path d="M333 0H67C49.2305 0 32.1888 7.05891 19.6238 19.6238C7.05891 32.1888 0 49.2305 0 67L0 333C0 350.77 7.05891 367.811 19.6238 380.376C32.1888 392.941 49.2305 400 67 400H333C350.77 400 367.811 392.941 380.376 380.376C392.941 367.811 400 350.77 400 333V67C400 49.2305 392.941 32.1888 380.376 19.6238C367.811 7.05891 350.77 0 333 0V0ZM362 325C362 334.813 358.102 344.224 351.163 351.163C344.224 358.102 334.813 362 325 362H75C65.187 362 55.7759 358.102 48.837 351.163C41.8982 344.224 38 334.813 38 325V162H362V325ZM362 124H38V75C38 65.187 41.8982 55.7759 48.837 48.837C55.7759 41.8982 65.187 38 75 38H325C334.813 38 344.224 41.8982 351.163 48.837C358.102 55.7759 362 65.187 362 75V124Z" fill="#4951F5"/>
<path d="M103.7 63H70.4C69.0745 63 68 64.0745 68 65.4V98.7C68 100.025 69.0745 101.1 70.4 101.1H103.7C105.025 101.1 106.1 100.025 106.1 98.7V65.4C106.1 64.0745 105.025 63 103.7 63Z" fill="#4951F5"/>
<path d="M161.7 63H128.4C127.075 63 126 64.0745 126 65.4V98.7C126 100.025 127.075 101.1 128.4 101.1H161.7C163.025 101.1 164.1 100.025 164.1 98.7V65.4C164.1 64.0745 163.025 63 161.7 63Z" fill="#4951F5"/>
<path d="M219.7 63H186.4C185.075 63 184 64.0745 184 65.4V98.7C184 100.025 185.075 101.1 186.4 101.1H219.7C221.025 101.1 222.1 100.025 222.1 98.7V65.4C222.1 64.0745 221.025 63 219.7 63Z" fill="#4951F5"/>
<path d="M311 295H203.3C201.477 295 200 296.477 200 298.3V329.8C200 331.623 201.477 333.1 203.3 333.1H311C312.823 333.1 314.3 331.623 314.3 329.8V298.3C314.3 296.477 312.823 295 311 295Z" fill="#4951F5"/>
<path d="M109 331C109.274 331.412 109.645 331.751 110.081 331.985C110.517 332.219 111.005 332.342 111.5 332.342C111.995 332.342 112.482 332.219 112.919 331.985C113.355 331.751 113.726 331.412 114 331L175 263C175.646 262.587 176.11 261.943 176.296 261.199C176.482 260.455 176.376 259.668 176 259L117 190C116.587 189.354 115.943 188.89 115.199 188.704C114.455 188.518 113.668 188.624 113 189L92.9999 206C92.5216 206.179 92.0969 206.477 91.7659 206.865C91.435 207.254 91.2087 207.721 91.1086 208.222C91.0084 208.722 91.0378 209.24 91.1937 209.726C91.3497 210.213 91.6272 210.651 91.9999 211L132 258C132.492 258.55 132.764 259.262 132.764 260C132.764 260.738 132.492 261.45 132 262L88.9999 309C88.6238 309.668 88.5179 310.455 88.7038 311.199C88.8898 311.943 89.3536 312.587 89.9999 313L109 331Z" fill="#4951F5"/>
</g>
<defs>
<clipPath id="clip0">
<rect width="400" height="400" fill="white"/>
</clipPath>
</defs>
</svg>
